<svg width="51" height="50" xmlns="http://www.w3.org/2000/svg" xmlns:xlink="http://www.w3.org/1999/xlink" xml:space="preserve" overflow="hidden"><defs><clipPath id="clip0"><rect x="649" y="113" width="51" height="50"/></clipPath></defs><g clip-path="url(#clip0)" transform="translate(-649 -113)"><path d="M20.5729 22.0833 22.0312 20.625C21.3021 19.8437 20.8333 18.8021 20.8333 17.6562 20.8333 16.5104 21.3021 15.4688 22.0312 14.6875L20.5729 13.2292C19.4271 14.375 18.75 15.9375 18.75 17.6562 18.75 19.375 19.4271 20.9375 20.5729 22.0833Z" transform="matrix(1.02 0 0 1 649 113)"/><path d="M17.6562 25 19.1146 23.5417C17.6042 22.0312 16.6667 19.9479 16.6667 17.6562 16.6667 15.3646 17.6042 13.2812 19.1146 11.7708L17.6562 10.3125C15.7292 12.1875 14.5833 14.7917 14.5833 17.6562 14.5833 20.5208 15.7292 23.125 17.6562 25Z" transform="matrix(1.02 0 0 1 649 113)"/><path d="M16.1458 26.5104C13.9062 24.2708 12.5 21.1458 12.5 17.6562 12.5 14.1667 13.9062 11.0937 16.1458 8.80208L14.6875 7.34375C12.0312 10 10.4167 13.6458 10.4167 17.6562 10.4167 21.6667 12.0312 25.3125 14.6875 27.9688L16.1458 26.5104Z" transform="matrix(1.02 0 0 1 649 113)"/><path d="M29.4271 22.0833C30.5729 20.9375 31.25 19.375 31.25 17.6562 31.25 15.9375 30.5729 14.375 29.4271 13.2292L27.9688 14.6875C28.6979 15.4167 29.1667 16.4583 29.1667 17.6562 29.1667 18.8542 28.6979 19.8437 27.9688 20.625L29.4271 22.0833Z" transform="matrix(1.02 0 0 1 649 113)"/><path d="M30.8854 23.5417 32.3437 25C34.2708 23.125 35.4167 20.5208 35.4167 17.6562 35.4167 14.7917 34.2708 12.1875 32.3437 10.3125L30.8854 11.7708C32.3958 13.2812 33.3333 15.3646 33.3333 17.6562 33.3333 19.9479 32.3958 22.0312 30.8854 23.5417Z" transform="matrix(1.02 0 0 1 649 113)"/><path d="M33.8542 26.5104 35.3125 27.9688C37.9688 25.3125 39.5833 21.6667 39.5833 17.6562 39.5833 13.6458 37.9688 10 35.3125 7.34375L33.8542 8.80208C36.0938 11.0417 37.5 14.1667 37.5 17.6562 37.5 21.1458 36.0938 24.2188 33.8542 26.5104Z" transform="matrix(1.02 0 0 1 649 113)"/><path d="M38.5417 38.4896C37.9688 38.4896 37.5 38.0208 37.5 37.4479 37.5 36.875 37.9688 36.4062 38.5417 36.4062 39.1146 36.4062 39.5833 36.875 39.5833 37.4479 39.5833 38.0208 39.1146 38.4896 38.5417 38.4896ZM33.3333 38.4896C32.7604 38.4896 32.2917 38.0208 32.2917 37.4479 32.2917 36.875 32.7604 36.4062 33.3333 36.4062 33.9062 36.4062 34.375 36.875 34.375 37.4479 34.375 38.0208 33.9062 38.4896 33.3333 38.4896ZM28.125 38.4896C27.5521 38.4896 27.0833 38.0208 27.0833 37.4479 27.0833 36.875 27.5521 36.4062 28.125 36.4062 28.6979 36.4062 29.1667 36.875 29.1667 37.4479 29.1667 38.0208 28.6979 38.4896 28.125 38.4896ZM22.9167 38.4896C22.3438 38.4896 21.875 38.0208 21.875 37.4479 21.875 36.875 22.3438 36.4062 22.9167 36.4062 23.4896 36.4062 23.9583 36.875 23.9583 37.4479 23.9583 38.0208 23.4896 38.4896 22.9167 38.4896ZM12.5 39.5312C11.3542 39.5312 10.4167 38.5937 10.4167 37.4479 10.4167 36.3021 11.3542 35.3646 12.5 35.3646 13.6458 35.3646 14.5833 36.3021 14.5833 37.4479 14.5833 38.5937 13.6458 39.5312 12.5 39.5312ZM40.625 32.2396 26.0417 32.2396 26.0417 19.4271C26.6667 19.0625 27.0833 18.3854 27.0833 17.6562 27.0833 16.5104 26.1458 15.5729 25 15.5729 23.8542 15.5729 22.9167 16.5104 22.9167 17.6562 22.9167 18.4375 23.3333 19.1146 23.9583 19.4271L23.9583 32.2396 9.375 32.2396C8.22917 32.2396 7.29167 33.1771 7.29167 34.3229L7.29167 40.5729C7.29167 41.7187 8.22917 42.6562 9.375 42.6562L40.625 42.6562C41.7708 42.6562 42.7083 41.7187 42.7083 40.5729L42.7083 34.3229C42.7083 33.1771 41.7708 32.2396 40.625 32.2396Z" transform="matrix(1.02 0 0 1 649 113)"/></g></svg>